# xmcd
#
# Track frame offsets: 
#        150
#        17855
#        33550
#        52190
#        75697
#        94717
#        119577
#        138497
#        162840
#        181705
#
# Disc length: 2632 seconds
#
# Revision: 0
# Processed by: cddbd v1.5.2PL0 Copyright (c) Steve Scherf et al.
# Submitted via: ExactAudioCopy v1.0b3
#
DISCID=820a460a
DTITLE=Various Artist - Mua Xuan cua Me
DYEAR=1994
DGENRE=
TTITLE0=Phuong Lam - Xuan nay con khong ve
TTITLE1=Phi Nhung - Chuyen buon ngay Xuan
TTITLE2=Tuan Vu - Phien gac dem Xuan
TTITLE3=Giao Linh - Mua Xuan cua Me
TTITLE4=Phuong Lam - Neu Xuan nay vang em
TTITLE5=Giao Linh - Don vang chieu Xuan
TTITLE6=Tuan Vu - Don vang chieu Xuan
TTITLE7=Phuong Lam - Mua Xuan cua Me
TTITLE8=Huong Lan - Cam on
TTITLE9=Tuan Vu - Canh thiep dau Xuan
EXTD=
EXTT0=
EXTT1=
EXTT2=
EXTT3=
EXTT4=
EXTT5=
EXTT6=
EXTT7=
EXTT8=
EXTT9=
PLAYORDER=
